Rio 2011 DVDRiP XViD AC3 - IMAGiNE


Ripper ...........:IMAGiNE 
IMDB Rating.......:7.5/10
Video Codec.......:XVID 
Release Date......:23/06/11
Audio Codec.......:MP3 
Theatre Date......:15/04/11
Audio Bitrate.....:128 
Runtime...........:1h 35mn
Subtitles.........:NIL 
Language..........:ENGLISH
Resolution........:720 x 288 
IMDb URL..........:http://www.imdb.com/title/tt1436562/ 


DETAILS:

Video
ID: 0
Format: MPEG-4 Visual
Format profile: Advanced Simple@L5
Format settings, BVOP: 2
Format settings, QPel: No
Format settings, GMC: No warppoints
Format settings, Matrix: Default (MPEG)
Muxing mode: Packed bitstream
Codec ID: XVID
Codec ID/Hint: XviD
Duration: 1h 35mn
Bit rate: 1 493 Kbps
Width: 720 pixels
Height: 288 pixels
Display aspect ratio: 2.500
Frame rate: 23.976 fps
Color space: YUV
Chroma subsampling: 4:2:0
Bit depth: 8 bits
Scan type: Progressive
Compression mode: Lossy
Bits/(Pixel*Frame): 0.300
Stream size: 1.00 GiB (77%)
Writing library: XviD 61

Audio
ID: 1
Format: AC-3
Format/Info: Audio Coding 3
Mode extension: CM (complete main)
Codec ID: 2000
Duration: 1h 35mn
Bit rate mode: Constant
Bit rate: 448 Kbps
Channel(s): 2 channels
Channel positions: Front: L R
Sampling rate: 48.0 KHz
Bit depth: 16 bits
Compression mode: Lossy
Stream size: 307 MiB (23%)
Alignment: Aligned on interleaves
Interleave, duration: 42 ms (1.00 video frame) 


SOURCES:

VIDEO: Rio.DVD9-ZMG
AUDIO: Rio.DVD9-ZMG ....Thanks m8ty NOTES:


IMAGiNE bringing you another release.......... Rio

Ok here we are with a nice dvdrip of Rio
Not much was needed for this one
as the source files were very nice
So we made a script to crop resize and sharpen
then ran a denoiser over it
Audio was then remuxed to our encode
Enjoy Another Fine Release By IMAGiNE...!!! 


SCREENS:

 
http://leetleech.org/images/12956114867533996080.jpg
 
http://leetleech.org/images/08318087235813273985.jpg
 
http://leetleech.org/images/37539734971200284121.jpg


ENJOY!